<svg width="160" height="160" viewBox="0 0 160 160" fill="none" xmlns="http://www.w3.org/2000/svg">
<circle cx="80" cy="80" r="77" fill="white" stroke="#786686" stroke-width="6"/>
<path d="M51 75.5H66V108H51C50.337 108 49.7011 107.737 49.2322 107.268C48.7634 106.799 48.5 106.163 48.5 105.5V78C48.5 77.337 48.7634 76.7011 49.2322 76.2322C49.7011 75.7634 50.337 75.5 51 75.5V75.5Z" stroke="#786686" stroke-width="2" stroke-linecap="round" stroke-linejoin="round"/>
<path d="M66 75.5L78.5 50.5C81.1522 50.5 83.6957 51.5536 85.5711 53.4289C87.4464 55.3043 88.5 57.8478 88.5 60.5V68H107.844C108.553 67.9982 109.254 68.1482 109.9 68.4399C110.546 68.7315 111.123 69.1581 111.59 69.6909C112.058 70.2237 112.406 70.8505 112.612 71.529C112.817 72.2076 112.875 72.9222 112.781 73.625L109.031 103.625C108.88 104.829 108.295 105.937 107.386 106.742C106.478 107.547 105.308 107.994 104.094 108H66" stroke="#786686" stroke-width="2" stroke-linecap="round" stroke-linejoin="round"/>
</svg>
