<svg width="70" height="70" viewBox="0 0 70 70" fill="none" xmlns="http://www.w3.org/2000/svg">
<path d="M12.4143 48.3983C9.15736 42.9033 8.01812 36.4085 9.21046 30.1331C10.4028 23.8577 13.8447 18.2333 18.8901 14.3157C23.9354 10.3982 30.2372 8.45702 36.6124 8.85655C42.9876 9.25608 48.9977 11.9689 53.5144 16.4856C58.0312 21.0024 60.744 27.0125 61.1435 33.3877C61.5431 39.7629 59.6019 46.0647 55.6844 51.11C51.7668 56.1554 46.1424 59.5973 39.867 60.7896C33.5916 61.982 27.0968 60.8427 21.6018 57.5858V57.5858L12.5237 60.1561C12.1518 60.2649 11.7574 60.2716 11.382 60.1756C11.0065 60.0795 10.6639 59.8843 10.3898 59.6103C10.1158 59.3362 9.92056 58.9936 9.82453 58.6181C9.72849 58.2427 9.73522 57.8483 9.844 57.4764L12.4143 48.3983Z" stroke="white" stroke-width="3" stroke-linecap="round" stroke-linejoin="round"/>
<path d="M21.8752 28.3008C21.904 26.5819 22.6089 24.9435 23.8373 23.7407C25.0657 22.5379 26.7185 21.8676 28.4377 21.8751H29.3947C29.7707 21.8757 30.1399 21.9743 30.466 22.1614C30.7921 22.3484 31.0638 22.6173 31.2541 22.9415L33.2775 26.3047C33.4724 26.6186 33.5823 26.9776 33.5967 27.3466C33.6111 27.7157 33.5294 28.0822 33.3596 28.4102L32.0744 31.0352C32.5262 32.683 33.3991 34.1848 34.6073 35.393C35.8154 36.6012 37.3172 37.4741 38.965 37.9258L41.59 36.6407C41.9181 36.4709 42.2845 36.3892 42.6536 36.4035C43.0227 36.4179 43.3817 36.5279 43.6955 36.7227L47.0588 38.7462C47.383 38.9365 47.6519 39.2081 47.8389 39.5342C48.0259 39.8603 48.1246 40.2296 48.1252 40.6055V41.5626C48.1326 43.2817 47.4623 44.9346 46.2595 46.163C45.0568 47.3914 43.4184 48.0963 41.6994 48.1251C39.09 48.1469 36.5023 47.6491 34.0872 46.6606C31.6722 45.6721 29.4781 44.2126 27.6328 42.3674C25.7876 40.5222 24.3282 38.3281 23.3397 35.913C22.3512 33.498 21.8533 30.9103 21.8752 28.3008V28.3008Z" stroke="white" stroke-width="3" stroke-linecap="round" stroke-linejoin="round"/>
</svg>
